<?xml version="1.0" encoding="UTF-8"?>
<svg width="65px" height="65px" viewBox="0 0 65 65" version="1.1" xmlns="http://www.w3.org/2000/svg" xmlns:xlink="http://www.w3.org/1999/xlink">
    <!-- Generator: Sketch 63.1 (92452) - https://sketch.com -->
    <title>Azure/akscluster.icon</title>
    <desc>Created with Sketch.</desc>
    <g id="Azure/akscluster.icon" stroke="none" stroke-width="1" fill="none" fill-rule="evenodd">
        <rect id="Rectangle-Copy-13" fill="#106EBE" fill-rule="nonzero" transform="translate(32.500000, 32.500000) scale(-1, 1) translate(-32.500000, -32.500000) " x="0" y="0" width="65" height="65" rx="16"></rect>
        <path d="M28.0780625,17 L24.0705311,23.9404983 L24.833488,25.2600121 L22.863453,26.6469874 L22.020988,25.1861258 L14.0075314,25.1861258 L10,32.1274272 L14.0075314,39.0671224 L22.020988,39.0671224 L22.8642561,37.6062607 L24.9427113,39.0687286 L24.0705311,40.577777 L28.0780625,47.5182753 L36.0915191,47.5182753 L40.0990505,40.577777 L39.2292797,39.0711379 L41.8988257,37.1958702 L42.979012,39.0671224 L50.9932717,39.0671224 L55,32.1274272 L50.9932717,25.1861258 L42.979012,25.1861258 L41.8988257,27.058181 L39.3376999,25.2584059 L40.0990505,23.9404983 L36.0915191,17 L28.0780625,17 Z M25.9249179,23.9404983 L29.0048544,18.606225 L35.1647273,18.606225 L38.2446638,23.9404983 L35.1647273,29.2747716 L29.0048544,29.2747716 L25.9249179,23.9404983 Z M36.0915191,30.8809966 L38.5313749,26.6550186 L41.0916976,28.4547937 L38.9730868,32.1274272 L41.0916976,35.7984545 L38.4229547,37.6753284 L36.0915191,33.6364756 L28.0780625,33.6364756 L25.7482332,37.6721159 L23.6713842,36.2096481 L26.0277163,32.1274272 L23.6713842,28.0444032 L25.6390099,26.6574279 L28.0780625,30.8809966 L36.0915191,30.8809966 Z M40.8266705,32.1274272 L43.9066069,26.7923508 L50.0664799,26.7923508 L53.1464163,32.1274272 L50.0664799,37.4608973 L43.9066069,37.4608973 L40.8266705,32.1274272 Z M11.8543868,32.1274272 L14.9335201,26.7923508 L21.0933931,26.7923508 L24.1733295,32.1274272 L21.0933931,37.4608973 L14.9335201,37.4608973 L11.8543868,32.1274272 Z M25.9249179,40.577777 L29.0048544,35.2435037 L35.1647273,35.2435037 L38.2446638,40.577777 L35.1647273,45.9120503 L29.0048544,45.9120503 L25.9249179,40.577777 Z" id="Fill-1" fill="#FFFFFF"></path>
    </g>
</svg>