<?xml version="1.0" encoding="UTF-8"?>
<svg width="65px" height="65px" viewBox="0 0 65 65" version="1.1" xmlns="http://www.w3.org/2000/svg" xmlns:xlink="http://www.w3.org/1999/xlink">
    <!-- Generator: Sketch 63.1 (92452) - https://sketch.com -->
    <title>Azure/resourcegroup.icon</title>
    <desc>Created with Sketch.</desc>
    <g id="Azure/resourcegroup.icon" stroke="none" stroke-width="1" fill="none" fill-rule="evenodd">
        <rect id="Rectangle-Copy-13" fill="#106EBE" fill-rule="nonzero" x="0" y="0" width="65" height="65" rx="16"></rect>
        <g id="Group-7" transform="translate(14.000000, 17.000000)" fill="#FFFFFF">
            <polygon id="Fill-1" points="0 29.6731489 1.61702128 29.6731489 1.61702128 0.933829787 0 0.933829787"></polygon>
            <polygon id="Fill-2" points="36.1153617 29.6731489 37.732383 29.6731489 37.732383 0.933829787 36.1153617 0.933829787"></polygon>
            <path d="M18.8696681,-0.000242553191 L15.1181787,2.16656596 L14.3331149,2.62014043 L5.4564766,7.74609787 L5.4564766,23.2290766 L18.8680511,30.9738 L18.8712851,30.9738 L32.2747745,23.2290766 L32.2747745,7.74609787 L18.8696681,-0.000242553191 Z M7.07349787,22.2992894 L7.07349787,8.67588511 L15.1100936,4.03503404 L16.7352,3.1044383 L18.8696681,1.86822553 L29.8492426,8.21422553 L26.9386043,9.89673617 L26.0985617,10.381034 L18.0611574,15.0226936 L18.0611574,28.6372043 L7.07349787,22.2992894 Z M19.6781787,15.9524809 L30.6577532,9.61294894 L30.6577532,22.2992894 L19.6781787,28.6372043 L19.6781787,15.9524809 Z" id="Fill-3"></path>
            <polygon id="Fill-4" points="22.2490809 11.0537957 16.7035064 14.2538809 16.7035064 24.2632426 15.0864851 23.3253702 15.0864851 13.3160085 20.6490383 10.0989447 22.225634 11.0125617"></polygon>
            <polygon id="Fill-5" points="18.8657872 9.11304681 13.3194043 12.3139404 13.3113191 22.3386638 11.6942979 21.4096851 11.7104681 11.3841532 17.248766 8.18325957 17.2568511 8.18325957"></polygon>
            <polygon id="Fill-6" points="15.4738426 7.13203404 9.92826809 10.3329277 9.92826809 20.3503745 8.31124681 19.4116936 8.31124681 9.40314043 13.8738 6.1860766 15.4576723 7.09969362 15.4576723 7.10858723"></polygon>
        </g>
    </g>
</svg>