<?xml version="1.0" encoding="UTF-8"?>
<svg width="65px" height="65px" viewBox="0 0 65 65" version="1.1" xmlns="http://www.w3.org/2000/svg" xmlns:xlink="http://www.w3.org/1999/xlink">
    <!-- Generator: Sketch 63.1 (92452) - https://sketch.com -->
    <title>Azure/virtualnetwork.icon</title>
    <desc>Created with Sketch.</desc>
    <g id="Azure/virtualnetwork.icon" stroke="none" stroke-width="1" fill="none" fill-rule="evenodd">
        <rect id="Rectangle-Copy-15" fill="#106EBE" fill-rule="nonzero" transform="translate(32.500000, 32.500000) scale(-1, 1) translate(-32.500000, -32.500000) " x="0" y="0" width="65" height="65" rx="16"></rect>
        <g id="Group-12-Copy" transform="translate(15.000000, 28.000000)" fill="#FFFFFF">
            <path d="M12.6608,4.84615 C12.6608,5.87315 11.8288,6.70615 10.8018,6.70615 C9.7738,6.70615 8.9408,5.87315 8.9408,4.84615 C8.9408,3.81915 9.7738,2.98715 10.8018,2.98715 C11.8288,2.98715 12.6608,3.81915 12.6608,4.84615" id="Fill-1"></path>
            <path d="M19.817,4.84615 C19.817,5.87315 18.984,6.70615 17.957,6.70615 C16.929,6.70615 16.096,5.87315 16.096,4.84615 C16.096,3.81915 16.929,2.98715 17.957,2.98715 C18.984,2.98715 19.817,3.81915 19.817,4.84615" id="Fill-3"></path>
            <path d="M26.9733,4.84615 C26.9733,5.87315 26.1403,6.70615 25.1133,6.70615 C24.0853,6.70615 23.2523,5.87315 23.2523,4.84615 C23.2523,3.81915 24.0853,2.98715 25.1133,2.98715 C26.1403,2.98715 26.9733,3.81915 26.9733,4.84615" id="Fill-5"></path>
            <polygon id="Fill-9" points="4.8463 9.69185 -0.0007 4.84585 4.8463 0.00085 6.5893 1.74385 3.4883 4.84585 6.5893 7.94885"></polygon>
            <polygon id="Fill-7" points="31.1539 9.69185 29.4099 7.94885 32.5119 4.84585 29.4099 1.74385 31.1539 0.00085 35.9999 4.84585"></polygon>
        </g>
    </g>
</svg>