<?xml version="1.0" encoding="UTF-8"?>
<svg width="65px" height="65px" viewBox="0 0 65 65" version="1.1" xmlns="http://www.w3.org/2000/svg" xmlns:xlink="http://www.w3.org/1999/xlink">
    <!-- Generator: Sketch 63.1 (92452) - https://sketch.com -->
    <title>Azure/accountclass.icon</title>
    <desc>Created with Sketch.</desc>
    <g id="Azure/accountclass.icon" stroke="none" stroke-width="1" fill="none" fill-rule="evenodd">
        <rect id="Rectangle-Copy-13" fill="#106EBE" fill-rule="nonzero" transform="translate(32.500000, 32.500000) scale(-1, 1) translate(-32.500000, -32.500000) " x="0" y="0" width="65" height="65" rx="16"></rect>
        <g id="Group" transform="translate(17.000000, 15.000000)" fill="#FFFFFF">
            <g id="Group-5">
                <path d="M15.3119077,9.23076923e-05 L-9.23076923e-05,8.8404 L-9.23076923e-05,26.5219385 L15.3119077,35.3622462 L30.6248308,26.5219385 L30.6248308,8.8404 L15.3119077,9.23076923e-05 Z M2.76913846,9.37301538 L15.3119077,2.13147692 L27.8556,9.37301538 L15.3119077,16.6154769 L2.76913846,9.37301538 Z M28.7786769,10.9717846 L28.7786769,25.4557846 L15.3119077,33.2308615 L1.84606154,25.4557846 L1.84606154,10.9717846 L15.3119077,18.7468615 L28.7786769,10.9717846 Z" id="Fill-1"></path>
                <polygon id="Fill-2" points="19.7740615 18.4137231 19.7740615 20.5183385 15.3257538 23.1121846 4.34021538 16.9829538 4.34021538 14.8589538 15.3063692 20.9891077 19.7648308 18.3943385"></polygon>
                <polygon id="Fill-3" points="19.7740615 22.3738154 19.7740615 24.4784308 15.3257538 27.0722769 4.34021538 20.9430462 4.34021538 18.8190462 15.3063692 24.9492 19.7648308 22.3544308"></polygon>
                <polygon id="Fill-4" points="19.7740615 28.4377846 15.3257538 31.0325538 4.34021538 24.9033231 4.34021538 22.7793231 15.3063692 28.9094769 19.7648308 26.3054769 19.7740615 26.3239385"></polygon>
            </g>
        </g>
    </g>
</svg>