<?xml version="1.0" encoding="UTF-8"?>
<svg width="65px" height="65px" viewBox="0 0 65 65" version="1.1" xmlns="http://www.w3.org/2000/svg" xmlns:xlink="http://www.w3.org/1999/xlink">
    <!-- Generator: Sketch 63.1 (92452) - https://sketch.com -->
    <title>Azure/containerclass.icon</title>
    <desc>Created with Sketch.</desc>
    <g id="Azure/containerclass.icon" stroke="none" stroke-width="1" fill="none" fill-rule="evenodd">
        <rect id="Rectangle-Copy-13" fill="#106EBE" fill-rule="nonzero" transform="translate(32.500000, 32.500000) scale(-1, 1) translate(-32.500000, -32.500000) " x="0" y="0" width="65" height="65" rx="16"></rect>
        <g id="Group-7" transform="translate(17.000000, 15.000000)" fill="#FFFFFF">
            <path d="M15.4066154,-0.000369230769 L-0.000461538462,8.8944 L-0.000461538462,26.6839385 L15.4066154,35.5777846 L30.8127692,26.6839385 L30.8127692,8.8944 L15.4066154,-0.000369230769 Z M2.034,25.5097846 L2.034,10.0685538 L15.4066154,2.34701538 L28.7783077,10.0685538 L28.7783077,25.5097846 L15.4066154,33.2304 L2.034,25.5097846 Z" id="Fill-1"></path>
            <polygon id="Fill-2" points="14.3898462 34.4049231 16.4233846 34.4049231 16.4233846 17.7895385 14.3898462 17.7895385"></polygon>
            <polygon id="Fill-3" points="15.4066154 16.6150154 1.52538462 8.60086154 0.508153846 10.3620923 15.4066154 18.9624 30.3041538 10.3620923 29.2869231 8.60086154"></polygon>
            <polygon id="Fill-4" points="5.74126154 25.7118462 5.74126154 16.1210769 3.71049231 14.958 3.71049231 24.5487692"></polygon>
            <polygon id="Fill-5" points="8.6484 17.7917538 8.6484 27.3825231 6.6084 26.2102154 6.6084 16.6194462"></polygon>
            <polygon id="Fill-6" points="11.5475077 19.4621538 11.5475077 29.0446154 11.5373538 29.0446154 9.51673846 27.8806154 9.51673846 18.2898462"></polygon>
        </g>
    </g>
</svg>