<?xml version="1.0" encoding="UTF-8"?>
<svg width="65px" height="65px" viewBox="0 0 65 65" version="1.1" xmlns="http://www.w3.org/2000/svg" xmlns:xlink="http://www.w3.org/1999/xlink">
    <!-- Generator: Sketch 63.1 (92452) - https://sketch.com -->
    <title>Azure/mysqlserver.icon</title>
    <desc>Created with Sketch.</desc>
    <defs>
        <polygon id="path-1" points="0 -0.00184864865 26.4352865 -0.00184864865 26.4352865 33.7895027 0 33.7895027"></polygon>
    </defs>
    <g id="Azure/mysqlserver.icon" stroke="none" stroke-width="1" fill="none" fill-rule="evenodd">
        <rect id="Rectangle-Copy-13" fill="#106EBE" fill-rule="nonzero" x="0" y="0" width="65" height="65" rx="16"></rect>
        <g id="Group-9" transform="translate(15.000000, 15.000000)">
            <g id="Group-3" transform="translate(0.000000, 0.001946)">
                <mask id="mask-2" fill="white">
                    <use xlink:href="#path-1"></use>
                </mask>
                <g id="Clip-2"></g>
                <path d="M13.2223135,10.4965297 C6.7715027,10.4965297 1.95528649,8.23923243 1.95528649,6.22517838 C1.95528649,4.20139459 6.7715027,1.9440973 13.2223135,1.9440973 C19.6633946,1.9440973 24.4893405,4.20139459 24.4893405,6.22517838 C24.4893405,8.23923243 19.6633946,10.4965297 13.2223135,10.4965297 M13.2223135,-0.00184864865 C5.68177297,-0.00184864865 0.00934054054,2.67382703 0.00934054054,6.21544865 L-0.000389189189,6.21544865 L0.00934054054,27.5722054 C0.00934054054,31.113827 5.68177297,33.7895027 13.2223135,33.7895027 C13.6805838,33.7895027 14.5757189,33.7603135 14.5757189,33.7603135 L14.9542054,31.7851784 C14.9542054,31.7851784 13.815827,31.8435568 13.2223135,31.8435568 C6.7715027,31.8435568 1.95528649,29.5862595 1.95528649,27.5722054 L1.94555676,9.55274595 C4.23301622,11.313827 8.32923243,12.4424757 13.2223135,12.4424757 C18.1076108,12.4424757 22.2028541,11.313827 24.4893405,9.55274595 L24.4893405,13.5711243 L26.4352865,13.5711243 L26.4352865,6.21544865 C26.4255568,2.67382703 20.7531243,-0.00184864865 13.2223135,-0.00184864865" id="Fill-1" fill="#FFFFFF" mask="url(#mask-2)"></path>
            </g>
            <path d="M34.0405297,36.0019459 L32.0945838,36.0019459 C32.0945838,32.3425946 29.1172865,29.3662703 25.4589081,29.3662703 C21.7995568,29.3662703 18.8222595,32.3425946 18.8222595,36.0019459 L16.8763135,36.0019459 C16.8763135,31.2703784 20.7263676,27.4203243 25.4589081,27.4203243 C30.1904757,27.4203243 34.0405297,31.2703784 34.0405297,36.0019459" id="Fill-4" fill="#FFFFFF"></path>
            <path d="M25.4586162,17.4993081 C23.5691027,17.4993081 22.0308324,19.0375784 22.0308324,20.9270919 C22.0308324,22.8175784 23.5691027,24.3548757 25.4586162,24.3548757 C27.3481297,24.3548757 28.885427,22.8175784 28.885427,20.9270919 C28.885427,19.0375784 27.3481297,17.4993081 25.4586162,17.4993081 M25.4586162,26.3008216 C22.4949405,26.3008216 20.0848865,23.8897946 20.0848865,20.9270919 C20.0848865,17.9643892 22.4949405,15.5533622 25.4586162,15.5533622 C28.4213189,15.5533622 30.831373,17.9643892 30.831373,20.9270919 C30.831373,23.8897946 28.4213189,26.3008216 25.4586162,26.3008216" id="Fill-7" fill="#FFFFFF"></path>
        </g>
    </g>
</svg>