<?xml version="1.0" encoding="UTF-8"?>
<svg width="65px" height="65px" viewBox="0 0 65 65" version="1.1" xmlns="http://www.w3.org/2000/svg" xmlns:xlink="http://www.w3.org/1999/xlink">
    <!-- Generator: Sketch 63.1 (92452) - https://sketch.com -->
    <title>Azure/postgresqlserver.icon</title>
    <desc>Created with Sketch.</desc>
    <defs>
        <polygon id="path-1" points="0.00037630662 0.303604181 41.3107602 0.303604181 41.3107602 30.1045296 0.00037630662 30.1045296"></polygon>
    </defs>
    <g id="Azure/postgresqlserver.icon" stroke="none" stroke-width="1" fill="none" fill-rule="evenodd">
        <rect id="Rectangle-Copy-13" fill="#106EBE" fill-rule="nonzero" x="0" y="0" width="65" height="65" rx="16"></rect>
        <g id="Group" transform="translate(10.000000, 15.000000)"></g>
        <g id="Group-6" transform="translate(12.000000, 17.000000)">
            <g id="Group-3" transform="translate(0.000000, 0.449084)">
                <mask id="mask-2" fill="white">
                    <use xlink:href="#path-1"></use>
                </mask>
                <g id="Clip-2"></g>
                <path d="M33.6482091,28.5996042 L33.6482091,25.5334578 C33.7069129,25.5357157 33.7633589,25.5364683 33.8205575,25.5364683 C38.8585505,25.5364683 37.9433728,17.4511443 32.9257003,17.233639 C32.8632334,17.2313812 32.8007666,17.229876 32.7398049,17.229876 C31.4678885,17.229876 30.530885,17.8078829 29.8640697,18.4626564 C28.9082509,19.4011652 28.427331,20.7220014 28.4235679,22.0609003 L28.417547,24.0703777 L28.417547,28.5996042 L21.0584948,28.5996042 L21.0584948,22.4018341 L8.86390244,22.4018341 L8.86390244,28.5996042 L1.50560279,28.5996042 L1.50560279,22.4018341 L1.50560279,20.1364683 L1.50560279,16.9514091 C1.50560279,10.613653 6.64369338,5.47480976 12.9822021,5.47480976 L19.3779094,5.47480976 C19.7105645,5.47480976 20.0379512,5.49964599 20.3615749,5.53577143 C20.0387038,7.13281672 20.1689059,9.22357631 21.285784,11.9171791 L24.4588014,19.5637296 L28.4596934,15.1285798 L27.3428153,14.120078 L24.9367108,16.7873394 L22.6766132,11.3406774 C21.3023415,8.02842648 21.6026341,5.85111638 22.2784808,4.48286551 C22.3213798,4.40609895 22.3597631,4.32406411 22.4056725,4.2495554 C22.4214774,4.22246132 22.4365296,4.19687247 22.4508293,4.17203624 C22.8903554,3.4879108 23.4465366,2.92721394 24.0794843,2.52005017 C24.1050732,2.50575052 24.130662,2.4929561 24.1389408,2.48844042 L24.1344251,2.47940906 C24.8193031,2.05267735 25.5907317,1.80883066 26.4110801,1.80883066 C27.5369895,1.80883066 28.5725854,2.26717213 29.4125017,3.03257979 C30.427777,2.26190383 31.630453,1.80883066 32.9257003,1.80883066 C36.5239443,1.80883066 39.4410732,5.26182021 39.4410732,9.52085854 L39.8030801,22.267869 C39.9016725,25.7351582 37.1170035,28.5996042 33.6482091,28.5996042 L33.6482091,28.5996042 Z M40.9462997,9.49903275 C40.9357631,4.42641951 37.3412822,0.303604181 32.9257003,0.303604181 C31.7252822,0.303604181 30.5527108,0.610670383 29.4794843,1.19846132 C28.540223,0.610670383 27.4963484,0.303604181 26.4110801,0.303604181 C25.3777422,0.303604181 24.3873031,0.60765993 23.4969617,1.13072613 L23.4954564,1.12771568 C23.4698676,1.13975749 22.262676,1.73055889 21.3173937,3.17331847 C21.1224669,3.45554843 20.9395819,3.75207805 20.7792753,4.06817561 C20.308892,4.00269826 19.8407666,3.96958328 19.3779094,3.96958328 L12.9822021,3.96958328 C5.82334495,3.96958328 0.00037630662,9.79405714 0.00037630662,16.9514091 L0.00037630662,20.1364683 L0.00037630662,22.4018341 L0.00037630662,28.5996042 L0.00037630662,30.1048307 L1.50560279,30.1048307 L8.86390244,30.1048307 L10.3691289,30.1048307 L10.3691289,28.5996042 L10.3691289,23.9070606 L19.5532683,23.9070606 L19.5532683,28.5996042 L19.5532683,30.1048307 L21.0584948,30.1048307 L28.417547,30.1048307 L29.9227735,30.1048307 L29.9227735,28.5996042 L29.9227735,24.0703777 L29.9287944,22.065416 C29.9318049,21.0734718 30.2923066,20.1515206 30.9184808,19.5366355 C31.4678885,18.9970118 32.0639582,18.7351024 32.7398049,18.7351024 C32.7796934,18.7351024 32.8195819,18.7358551 32.860223,18.7373603 C34.8456167,18.8239108 35.6975749,20.746085 35.6689756,22.084984 C35.6486551,22.972315 35.3129895,24.0312418 33.8205575,24.0312418 C33.7814216,24.0312418 33.7422857,24.0304892 33.7016446,24.028984 L32.1429826,23.9740432 L32.1429826,25.5334578 L32.1429826,28.5996042 L32.1429826,30.1048307 L33.6482091,30.1048307 C35.7359582,30.1048307 37.6874843,29.2799666 39.1422857,27.7830188 C40.5978397,26.2860711 41.3670105,24.3119666 41.307554,22.22497 L40.9462997,9.49903275 Z" id="Fill-1" fill="#FFFFFF" mask="url(#mask-2)"></path>
            </g>
            <path d="M36.0522815,10.1378509 C36.0522815,10.8016557 35.5141631,11.3397742 34.8503582,11.3397742 C34.1865533,11.3397742 33.6484348,10.8016557 33.6484348,10.1378509 C33.6484348,9.47404599 34.1865533,8.93517491 34.8503582,8.93517491 C35.5141631,8.93517491 36.0522815,9.47404599 36.0522815,10.1378509" id="Fill-4" fill="#FFFFFF"></path>
        </g>
    </g>
</svg>