<?xml version="1.0" encoding="UTF-8"?>
<svg width="65px" height="65px" viewBox="0 0 65 65" version="1.1" xmlns="http://www.w3.org/2000/svg" xmlns:xlink="http://www.w3.org/1999/xlink">
    <!-- Generator: Sketch 63.1 (92452) - https://sketch.com -->
    <title>Azure/postgresqlservervirtualnetworkrule.icon</title>
    <desc>Created with Sketch.</desc>
    <g id="Azure/postgresqlservervirtualnetworkrule.icon" stroke="none" stroke-width="1" fill="none" fill-rule="evenodd">
        <rect id="Rectangle-Copy-13" fill="#106EBE" fill-rule="nonzero" transform="translate(32.500000, 32.500000) scale(-1, 1) translate(-32.500000, -32.500000) " x="0" y="0" width="65" height="65" rx="16"></rect>
        <g id="Group-15" transform="translate(13.000000, 15.000000)" fill="#FFFFFF">
            <g id="Group-3" transform="translate(0.000000, 0.710270)">
                <path d="M13.2231892,10.7610811 C6.77140541,10.7610811 1.95616216,8.50378378 1.95616216,6.48972973 C1.95616216,4.46594595 6.77140541,2.20864865 13.2231892,2.20864865 C19.674,2.20864865 24.4902162,4.46594595 24.4902162,6.48972973 C24.4902162,8.50378378 19.674,10.7610811 13.2231892,10.7610811 L13.2231892,10.7610811 Z M26.4361622,20.6704307 L26.4361622,6.48 C26.4361622,2.93837838 20.753027,0.262702703 13.2231892,0.262702703 C5.69237838,0.262702703 0.0102162162,2.93837838 0.0102162162,6.48 L-0.000486486486,6.48 L0.0102162162,27.8367568 C0.0102162162,31.3783784 5.69237838,34.0540541 13.2231892,34.0540541 C18.5745405,34.0540541 22.9811351,32.7016216 25.0924865,30.6583784 L21.4438378,30.6583784 C19.4200541,31.5145946 16.5400541,32.1081081 13.2231892,32.1081081 C6.77140541,32.1081081 1.95616216,29.8508108 1.95616216,27.8367568 L1.95616216,9.8172973 C4.23291892,11.5783784 8.32913514,12.707027 13.2231892,12.707027 C18.1075135,12.707027 22.2124865,11.5783784 24.4902162,9.8172973 C24.4902162,17.0527196 24.4902162,20.6704307 24.4902162,20.6704307 C24.4902162,20.6704307 25.1388649,20.6704307 26.4361622,20.6704307 Z" id="Fill-1"></path>
            </g>
            <path d="M21.2510919,26.2014811 C21.2510919,27.0119676 20.5943351,27.6696973 19.7838486,27.6696973 C18.9733622,27.6696973 18.3156324,27.0119676 18.3156324,26.2014811 C18.3156324,25.3909946 18.9733622,24.7342378 19.7838486,24.7342378 C20.5943351,24.7342378 21.2510919,25.3909946 21.2510919,26.2014811" id="Fill-4"></path>
            <path d="M26.8970595,26.2014811 C26.8970595,27.0119676 26.2403027,27.6696973 25.4298162,27.6696973 C24.6193297,27.6696973 23.9616,27.0119676 23.9616,26.2014811 C23.9616,25.3909946 24.6193297,24.7342378 25.4298162,24.7342378 C26.2403027,24.7342378 26.8970595,25.3909946 26.8970595,26.2014811" id="Fill-6"></path>
            <path d="M32.5429297,26.2014811 C32.5429297,27.0119676 31.886173,27.6696973 31.0756865,27.6696973 C30.2652,27.6696973 29.6074703,27.0119676 29.6074703,26.2014811 C29.6074703,25.3909946 30.2652,24.7342378 31.0756865,24.7342378 C31.886173,24.7342378 32.5429297,25.3909946 32.5429297,26.2014811" id="Fill-8"></path>
            <polygon id="Fill-13" points="15.0854595 30.024973 11.2616757 26.2011892 15.0854595 22.3783784 16.4612432 23.7541622 14.0132432 26.2011892 16.4612432 28.6491892"></polygon>
            <polygon id="Fill-10" points="35.8418919 30.024973 34.4661081 28.6491892 36.9141081 26.2011892 34.4661081 23.7541622 35.8418919 22.3783784 39.6656757 26.2011892"></polygon>
        </g>
    </g>
</svg>