<?xml version="1.0" encoding="UTF-8"?>
<svg width="65px" height="65px" viewBox="0 0 65 65" version="1.1" xmlns="http://www.w3.org/2000/svg" xmlns:xlink="http://www.w3.org/1999/xlink">
    <!-- Generator: Sketch 63.1 (92452) - https://sketch.com -->
    <title>Azure/sqlserverclass.icon</title>
    <desc>Created with Sketch.</desc>
    <defs>
        <polygon id="path-1" points="9e-05 0.819 23.60619 0.819 23.60619 30.94182 9e-05 30.94182"></polygon>
    </defs>
    <g id="Azure/sqlserverclass.icon" stroke="none" stroke-width="1" fill="none" fill-rule="evenodd">
        <rect id="Rectangle-Copy-13" fill="#106EBE" fill-rule="nonzero" transform="translate(32.500000, 32.500000) scale(-1, 1) translate(-32.500000, -32.500000) " x="0" y="0" width="65" height="65" rx="16"></rect>
        <g id="Group-8" transform="translate(16.000000, 14.000000)">
            <g id="Group-3" transform="translate(0.000000, 0.081000)">
                <mask id="mask-2" fill="white">
                    <use xlink:href="#path-1"></use>
                </mask>
                <g id="Clip-2"></g>
                <path d="M11.80809,10.13382 C6.12819,10.13382 1.88109,8.17182 1.88109,6.41682 C1.88109,4.66182 6.12819,2.69982 11.80809,2.69982 C17.47809,2.69982 21.72609,4.66182 21.72609,6.41682 C21.72609,8.17182 17.47809,10.13382 11.80809,10.13382 M11.80809,0.81882 C5.07609,0.81882 0.00909,3.22182 0.00909,6.41682 L9e-05,6.41682 L0.00909,25.35282 C0.00909,28.47582 4.85109,30.84372 11.35809,30.94182 L9.92709,28.98882 C5.21109,28.62882 1.88109,26.91072 1.88109,25.35282 L1.88109,9.52182 C3.95109,11.04372 7.54209,12.01482 11.80809,12.01482 C16.06419,12.01482 19.66419,11.04372 21.72609,9.52182 L21.72609,12.04182 L23.60619,12.04182 L23.60619,6.41682 C23.59809,3.22182 18.53109,0.81882 11.80809,0.81882" id="Fill-1" fill="#FFFFFF" mask="url(#mask-2)"></path>
            </g>
            <path d="M22.67136,27.80964 C21.05946,27.80964 19.74636,26.49564 19.74636,24.88464 C19.74636,23.27454 21.05946,21.95964 22.67136,21.95964 C24.28146,21.95964 25.58646,23.27454 25.58646,24.88464 C25.58646,26.49564 24.28146,27.80964 22.67136,27.80964 L22.67136,27.80964 Z M22.67136,20.08854 C20.01636,20.08854 17.86446,22.23954 17.86446,24.88464 C17.86446,27.53064 20.01636,29.69154 22.67136,29.69154 C25.31646,29.69154 27.46836,27.53064 27.46836,24.88464 C27.46836,22.23954 25.31646,20.08854 22.67136,20.08854 L22.67136,20.08854 Z M29.30346,30.15054 L27.94446,31.50864 L26.42436,30.40254 L25.90236,30.68964 C25.46136,30.93354 24.99336,31.13064 24.49746,31.27554 L23.91336,31.43664 L23.64336,33.30054 L21.71646,33.30054 L21.41946,31.43664 L20.84436,31.27554 C20.34936,31.13064 19.87236,30.94164 19.43946,30.69954 L18.91836,30.40254 L17.39736,31.52754 L16.03836,30.16764 L17.14446,28.64754 L16.85646,28.11654 C16.61436,27.68364 16.41636,27.21654 16.27236,26.71164 L16.10946,26.13654 L14.24736,25.85664 L14.24736,23.93064 L16.10946,23.64264 L16.27236,23.05854 C16.41636,22.56354 16.60536,22.09464 16.84746,21.66354 L17.14446,21.13164 L16.01946,19.61154 L17.38836,18.25254 L18.90846,19.36764 L19.43046,19.07064 C19.87236,18.82854 20.33946,18.63954 20.83446,18.49464 L21.41946,18.32454 L21.69936,16.46154 L23.61636,16.46154 L23.91336,18.32454 L24.48936,18.49464 C24.98346,18.63054 25.46136,18.82854 25.89336,19.07064 L26.42436,19.35864 L27.93636,18.24264 L29.29446,19.60254 L28.17846,21.12264 L28.47546,21.65364 C28.71936,22.08654 28.90836,22.55364 29.05236,23.04954 L29.22246,23.63364 L31.08636,23.91354 L31.08636,25.83054 L29.22246,26.12754 L29.05236,26.70354 C28.91646,27.19764 28.71936,27.67554 28.48446,28.10664 L28.18836,28.63854 L29.30346,30.15054 Z M32.96646,27.44154 L32.96646,22.29264 L30.67236,21.95064 C30.58146,21.71664 30.49146,21.50064 30.39336,21.28464 L31.76136,19.41354 L28.11636,15.76764 L26.25246,17.14464 C26.03646,17.04564 25.81146,16.95564 25.58646,16.87554 L25.22736,14.58054 L20.07846,14.58054 L19.73646,16.87554 C19.50246,16.95564 19.27746,17.05554 19.06146,17.15364 L17.18946,15.78654 L13.54446,19.43064 L14.93046,21.29454 C14.83146,21.50964 14.73336,21.73464 14.65236,21.96954 L12.36636,22.31964 L12.36636,27.47754 L14.66136,27.81954 C14.74146,28.04454 14.83146,28.26954 14.93946,28.49454 L13.57236,30.35664 L17.21646,34.00254 L19.08036,32.61654 C19.29636,32.72454 19.52136,32.81454 19.75536,32.89464 L20.10546,35.18064 L25.26336,35.18064 L25.60536,32.88654 C25.83036,32.80554 26.05536,32.71464 26.27136,32.61654 L28.14336,33.97554 L31.77846,30.33054 L30.40236,28.46664 C30.50046,28.25064 30.59136,28.02564 30.68046,27.80064 L32.96646,27.44154 Z" id="Fill-4" fill="#FFFFFF"></path>
            <path d="M22.67136,27.80964 C21.05946,27.80964 19.74636,26.49564 19.74636,24.88464 C19.74636,23.27454 21.05946,21.95964 22.67136,21.95964 C24.28146,21.95964 25.58646,23.27454 25.58646,24.88464 C25.58646,26.49564 24.28146,27.80964 22.67136,27.80964 M22.67136,20.08854 C20.01636,20.08854 17.86446,22.23954 17.86446,24.88464 C17.86446,27.53064 20.01636,29.69154 22.67136,29.69154 C25.31646,29.69154 27.46836,27.53064 27.46836,24.88464 C27.46836,22.23954 25.31646,20.08854 22.67136,20.08854" id="Fill-6" fill="#FFFFFF"></path>
        </g>
    </g>
</svg>