<?xml version="1.0" encoding="UTF-8"?>
<svg width="65px" height="65px" viewBox="0 0 65 65" version="1.1" xmlns="http://www.w3.org/2000/svg" xmlns:xlink="http://www.w3.org/1999/xlink">
    <!-- Generator: Sketch 63.1 (92452) - https://sketch.com -->
    <title>icon</title>
    <desc>Created with Sketch.</desc>
    <g id="icon" stroke="none" stroke-width="1" fill="none" fill-rule="evenodd">
        <rect id="Rectangle-Copy-13" fill="#1A1A1F" fill-rule="nonzero" x="0" y="0" width="65" height="65" rx="16"></rect>
        <g id="Group" transform="translate(18.000000, 18.000000)" fill-rule="nonzero" stroke-width="0.5">
            <path d="M0.00314163745,0.44519229 C0.00314163745,0.302421701 0.00314163745,0.151252842 0.0115431131,0 C4.67436208,0.00848225266 9.33718104,0 14,0.00848225266 L14,13.9916017 C9.33718104,14.0083983 4.67436208,13.9916017 0.0115431131,14 C-0.0136613138,9.48173076 0.0115431131,4.96346153 0.00314163745,0.44519229 Z" id="Path" stroke="#F25022" fill="#F25022"></path>
            <path d="M16,0.0335930798 C16.1007798,0.00839826996 16.2015597,0 16.3107379,0 C20.8710258,0.00848225266 25.4397121,0 30,0.00848225266 L30,13.9916017 C25.3389322,14.0083983 20.6778644,13.9916017 16.0167966,14 C15.9832034,9.34727446 16.025195,4.68623464 16,0.0335930798 Z" id="Path" stroke="#7FBA00" fill="#7FBA00"></path>
            <path d="M0,29.9663229 C0.0335932813,25.3136814 -0.0167966407,20.6526416 0.025194961,16 C4.67786443,16.0083983 9.33893221,15.9916017 14,16.0083983 L14,29.9915177 C9.51529694,30 5.0389922,29.9915177 0.554289142,30 C0.369526095,30 0.184763047,30 0,29.9663229 L0,29.9663229 Z" id="Path" stroke="#00A4EF" fill="#00A4EF"></path>
            <path d="M16.0083983,17.0329872 C16.0083983,16.6886581 15.9916017,16.3443291 16.0167966,16 C20.6778644,16.0083983 25.3389322,15.9916017 30,16.0083983 L30,29.9915177 C25.4397121,30 20.8710258,29.9915177 16.3107379,30 C16.2015597,29.9915177 16.1007798,29.9832035 16,29.9748052 C16.0167966,25.6580104 16,21.349698 16.0083983,17.0329872 Z" id="Path" stroke="#FFB900" fill="#FFB900"></path>
        </g>
    </g>
</svg>